<svg width="63" height="24" viewBox="0 0 63 24" fill="none" xmlns="http://www.w3.org/2000/svg">
<path d="M4.25 12.2744L19.25 12.2744" stroke="white" stroke-width="1.5" stroke-linecap="round" stroke-linejoin="round"/>
<path d="M10.2998 18.299L4.2498 12.275L10.2998 6.25" stroke="white" stroke-width="1.5" stroke-linecap="round" stroke-linejoin="round"/>
<path d="M33.6448 17.5V7.476H37.3128C39.2448 7.476 40.4348 8.456 40.4348 10.066C40.4348 11.242 39.9168 12.04 38.8808 12.446C40.0428 12.824 40.6308 13.636 40.6308 14.868C40.6308 16.478 39.4268 17.5 37.5228 17.5H33.6448ZM37.2988 8.372H34.6528V12.04H37.4248C38.6848 12.04 39.3988 11.34 39.3988 10.15C39.3988 9.03 38.6428 8.372 37.2988 8.372ZM37.5228 12.922H34.6528V16.59H37.5228C38.8388 16.59 39.6088 15.904 39.6088 14.742C39.6088 13.608 38.8248 12.922 37.5228 12.922ZM44.1854 17.668C42.7434 17.668 41.8894 16.856 41.8894 15.666C41.8894 14.42 42.8414 13.636 44.4234 13.51L46.6634 13.328V13.104C46.6634 11.774 45.8654 11.354 44.8714 11.354C43.6954 11.354 42.9954 11.886 42.9954 12.796H42.1134C42.1134 11.424 43.2334 10.542 44.8994 10.542C46.4674 10.542 47.6154 11.326 47.6154 13.118V17.5H46.8034L46.6774 16.31C46.2574 17.164 45.3334 17.668 44.1854 17.668ZM44.4094 16.884C45.8374 16.884 46.6634 15.89 46.6634 14.42V14.056L44.6614 14.21C43.3874 14.322 42.8694 14.882 42.8694 15.638C42.8694 16.464 43.4854 16.884 44.4094 16.884ZM49.0779 14.126C49.0779 11.998 50.3799 10.542 52.3539 10.542C53.9219 10.542 55.0699 11.452 55.3359 12.852H54.3699C54.1179 11.914 53.3059 11.396 52.3679 11.396C50.9959 11.396 50.0299 12.446 50.0299 14.112C50.0299 15.722 50.9259 16.8 52.2979 16.8C53.3059 16.8 54.1179 16.24 54.3839 15.372H55.3639C55.0419 16.758 53.8379 17.668 52.2979 17.668C50.3799 17.668 49.0779 16.254 49.0779 14.126ZM57.8353 17.5H56.8693V7.294H57.8353V14.224L61.1953 10.724H62.4133L59.8093 13.426L62.4273 17.5H61.3073L59.1513 14.112L57.8353 15.47V17.5Z" fill="#FAFAFA"/>
</svg>
