<svg width="95" height="95" viewBox="0 0 95 95" fill="none" xmlns="http://www.w3.org/2000/svg">
<path d="M47.5003 90.0524C24.0274 90.0524 4.94824 70.9732 4.94824 47.5003C4.94824 24.0274 24.0274 4.94824 47.5003 4.94824C70.9732 4.94824 90.0524 24.0274 90.0524 47.5003C90.0524 70.9732 70.9732 90.0524 47.5003 90.0524ZM47.5003 10.8857C27.3128 10.8857 10.8857 27.3128 10.8857 47.5003C10.8857 67.6878 27.3128 84.1149 47.5003 84.1149C67.6878 84.1149 84.1149 67.6878 84.1149 47.5003C84.1149 27.3128 67.6878 10.8857 47.5003 10.8857Z" fill="#1FAA4E"/>
<path d="M41.8787 61.6712C41.087 61.6712 40.335 61.3545 39.7808 60.8003L28.5787 49.5982C27.4308 48.4503 27.4308 46.5503 28.5787 45.4024C29.7266 44.2545 31.6266 44.2545 32.7745 45.4024L41.8787 54.5066L62.2245 34.1607C63.3725 33.0128 65.2725 33.0128 66.4204 34.1607C67.5683 35.3087 67.5683 37.2087 66.4204 38.3566L43.9766 60.8003C43.4225 61.3545 42.6704 61.6712 41.8787 61.6712Z" fill="#1FAA4E"/>
</svg>
